<mxfile host="app.diagrams.net" modified="2024-01-13T15:48:42.699Z" agent="Mozilla/5.0 (Windows NT 10.0; Win64; x64) AppleWebKit/537.36 (KHTML, like Gecko) Chrome/120.0.0.0 Safari/537.36" version="22.1.18" etag="7LcB8cr9AIb6qTN-riyk" type="github">
  <diagram name="Page-1" id="FEGc6OmiJ9zOT7doxgSr">
    <mxGraphModel>
      <root>
        <mxCell id="0" />
        <mxCell id="1" parent="0" />
      </root>
    </mxGraphModel>
  </diagram>
</mxfile>
